<svg width="95" height="105" viewBox="0 0 95 105" xmlns="http://www.w3.org/2000/svg"><title>Slice 1</title><path d="M93.693 25.113l-1.163-1.345c-.317-.367-.549-.338-.71-.327l-10.504.792-.002.001-2.753.143a.532.532 0 0 0-.494.426l-.6 2.96c0 .004.002.006.001.01l-.331 1.619-1.708 8.626c-.034.158-.096.383.22.75l1.164 1.344c.402.465 1.105.241 1.24-.345l2.04-10.704c6.419 7.53 10.3 17.286 10.3 27.934 0 23.78-19.348 43.128-43.128 43.128-23.781 0-43.128-19.347-43.128-43.128 0-23.371 18.687-42.454 41.903-43.106v9.092c0 .356.295.647.656.647h1.805c.36 0 .656-.29.656-.647V1.647A.654.654 0 0 0 48.501 1h-1.805a.654.654 0 0 0-.656.647v9.107C21.094 11.407 1 31.896 1 56.997c0 25.51 20.754 46.264 46.265 46.264 25.51 0 46.264-20.754 46.264-46.264 0-11.448-4.182-21.935-11.095-30.021l10.738-.686c.6-.049.922-.712.52-1.177" stroke="#231F20" stroke-width="2" fill="#231F20" fill-rule="evenodd"/></svg>