<svg width="38" height="38" viewBox="0 0 38 38" xmlns="http://www.w3.org/2000/svg"><g fill-rule="nonzero" fill="none"><rect fill="#FFF" width="38" height="38" rx="2"/><path d="M19 32c-7.18 0-13-5.82-13-13S11.82 6 19 6s13 5.82 13 13-5.82 13-13 13zm10.869-8.95h-3.24a12.456 12.456 0 0 1-6.35 7.458c4.412-.484 8.073-3.435 9.59-7.459zm-4.05-3.702c0-1.053-.14-2.1-.39-3.118h-5.79v5.54h5.93c.16-.781.25-1.59.25-2.422zm-7.687 3.701H12.82c.983 2.622 2.901 5.084 5.328 6.394l-.016-6.394zm.229-1.279v-5.54h-5.87a12.732 12.732 0 0 0-.31 2.77c0 .956.114 1.882.327 2.77h5.853zm0-6.82V8.345a12.117 12.117 0 0 0-5.541 6.604h5.54v.003zm6.606 0c-1.011-2.79-2.913-5.212-5.328-6.606v6.607h5.328zm-5.328 8.1v6.606a11.75 11.75 0 0 0 5.541-6.607h-5.54zm-1.278 7.458v-.25.25c-3.184-1.332-5.688-4.213-6.85-7.459h-3.38a11.663 11.663 0 0 0 10.23 7.46zM7.638 16.23c-.234.91-.36 1.808-.36 2.791 0 .949.129 1.865.347 2.75h3.49c-.207-.885-.324-1.801-.324-2.75 0-.927.114-1.846.313-2.749h-3.12c-.122 0-.245.013-.346-.042zm.493-1.28h3.344c1.027-3.116 3.491-5.899 6.246-7.458-4.267.604-8.11 3.566-9.59 7.459zM20.28 7.493c2.847 1.485 5.079 4.25 6.184 7.459h3.406c-1.513-4.04-5.18-7-9.59-7.46zm6.606 8.738c.242 1.017.371 2.061.371 3.116 0 .83-.088 1.638-.239 2.424h3.363c.215-.888.341-1.812.341-2.77 0-.956-.126-1.88-.341-2.77h-3.495z" stroke="#141414" fill="#151212"/></g></svg>