<svg width="302" height="303" viewBox="0 0 302 303" xmlns="http://www.w3.org/2000/svg"><title>Slice 1</title><g fill="none" fill-rule="evenodd"><ellipse stroke="#000" stroke-width="8" cx="150.945" cy="151.111" rx="146.945" ry="147.111"/><path d="M146.674 202.794l-24.325-19.202c-1.374-1.006-3.298-.183-3.298 1.556v5.033c0 1.373.55 1.739.916 2.014l19.65 15.308 3.712 2.854c.008.007.007.017.016.024l6.77 5.227a1.51 1.51 0 0 0 1.852-.003l6.165-4.792h.005l23.986-17.754c.366-.275.916-.64.916-2.014v-5.033c0-1.739-1.924-2.562-3.298-1.556l-24.364 18.447V76.359c0-1.006-.825-1.83-1.833-1.83h-5.038a1.837 1.837 0 0 0-1.832 1.83v126.435zm-2.627 17.187h-23.18c-1.007 0-1.832.835-1.832 1.857v5.108c0 1.022.825 1.858 1.833 1.858h60.466c1.008 0 1.833-.836 1.833-1.858v-5.108c0-1.022-.825-1.857-1.833-1.857h-37.287z" fill="#231F20"/></g></svg>