<svg width="117" height="18" viewBox="0 0 117 18" xmlns="http://www.w3.org/2000/svg"><title>Slice 1</title><path d="M2.622 9.704c-.127-.075-.254.1-.254.251v5.204c0 .151.101.252.254.252H5.22c1.579 0 2.928-1.232 2.928-2.74 0-1.76-1.35-2.967-2.928-2.967H2.622zM5.22 7.44c1.655 0 2.571-1.106 2.571-2.564 0-1.483-1.247-2.288-2.571-2.288H2.622c-.153 0-.254.101-.254.252V7.19c0 .15.101.251.254.251H5.22zm4.99-2.564c0 1.157-.484 2.564-1.451 3.394-.204.176-.204.402 0 .553 1.044.83 1.807 2.413 1.807 3.846 0 2.917-2.418 5.129-5.346 5.129H.509A.507.507 0 0 1 0 17.296V.704C0 .427.23.2.51.2h4.709c2.75 0 4.99 1.961 4.99 4.676zm19.565 6.059v6.36c0 .277-.229.503-.509.503h-1.4a.507.507 0 0 1-.51-.503V.704c0-.277.23-.503.51-.503h1.4c.28 0 .51.226.51.503v10.232zm4.818-.721l5.341 6.675c.28.377.051.905-.433.905h-1.4c-.382 0-.483-.151-.56-.252l-4.259-5.392-.8-1.022-1.454-1.858a.41.41 0 0 1 0-.508l1.334-1.694L37.3.488c.076-.101.178-.252.56-.252h1.4c.484 0 .713.528.433.905L34.56 7.827h28.464c.28 0 .51.226.51.503v1.382c0 .277-.23.503-.51.503H34.592zm36.282-.687c-2.495-.553-4.251-2.061-4.251-4.802C66.623 1.71 69.245 0 71.867 0c3.004 0 5.22 2.137 5.22 4.726v.327c0 .277-.23.503-.51.503h-1.4a.507.507 0 0 1-.51-.503v-.327c0-1.684-1.501-2.338-2.8-2.338-1.655 0-2.8.905-2.8 2.338 0 2.213 2.164 2.439 3.819 2.841 2.902.704 4.71 2.313 4.71 5.204 0 3.218-2.776 5.229-5.729 5.229-3.284 0-5.728-2.363-5.728-5.229v-.402c0-.277.23-.503.51-.503h1.425c.28 0 .509.226.509.503v.402c0 1.634 1.375 2.84 3.284 2.84 1.91 0 3.284-1.231 3.284-2.84 0-2.338-1.705-2.665-4.277-3.243zm39.405 0c-2.495-.553-4.252-2.061-4.252-4.802 0-3.016 2.623-4.726 5.245-4.726 3.004 0 5.219 2.137 5.219 4.726v.327c0 .277-.23.503-.51.503h-1.4a.507.507 0 0 1-.509-.503v-.327c0-1.684-1.502-2.338-2.8-2.338-1.655 0-2.8.905-2.8 2.338 0 2.213 2.163 2.439 3.818 2.841 2.902.704 4.71 2.313 4.71 5.204 0 3.218-2.775 5.229-5.728 5.229-3.284 0-5.729-2.363-5.729-5.229v-.402c0-.277.23-.503.51-.503h1.425c.28 0 .51.226.51.503v.402c0 1.634 1.374 2.84 3.284 2.84 1.91 0 3.284-1.231 3.284-2.84 0-2.338-1.706-2.665-4.277-3.243zm-27.72-7.034c-.152 0-.254.101-.254.252v5.28c0 .15.102.25.254.25h2.419c1.604 0 2.928-1.307 2.928-2.89 0-1.584-1.324-2.892-2.928-2.892h-2.419zM84.871 0c2.953 0 5.346 2.363 5.346 5.28 0 2.916-2.393 5.279-5.346 5.279h-2.419c-.153 0-.255.1-.255.251v6.285c0 .277-.229.503-.509.503h-1.4a.507.507 0 0 1-.51-.503V.503c0-.277.23-.503.51-.503h4.583zm11.472 14.958c0 .151.102.252.254.252h6.11c.28 0 .51.226.51.502v1.383c0 .277-.23.503-.51.503h-8.274a.507.507 0 0 1-.509-.503V.503c0-.277.23-.503.51-.503h8.223c.28 0 .509.226.509.503v1.382c0 .277-.23.503-.51.503h-6.059c-.152 0-.254.1-.254.252v4.525c0 .15.102.251.254.251h5.78c.28 0 .509.226.509.503v1.383c0 .276-.23.502-.51.502h-5.779c-.152 0-.254.101-.254.252v4.902zm-5.588.507c.28 0 .51.226.51.503v1.382c0 .277-.23.503-.51.503h-.14v.006H89.38a.507.507 0 0 1-.509-.503v-1.382c0-.277.23-.503.51-.503h.05v-.006h1.323zM24.682 12.77c0 2.79-2.368 5.229-5.729 5.229-3.055 0-5.32-1.986-5.728-5.229-.254-2.036-.254-5.53 0-7.542C13.556 2.49 15.593 0 18.953 0c3.055 0 5.729 1.96 5.729 5.23v.35c0 .278-.23.504-.51.504h-1.4a.507.507 0 0 1-.509-.503v-.352c0-1.508-1.298-2.816-3.31-2.84-1.654 0-3.08 1.005-3.31 2.84-.254 2.061-.254 5.48 0 7.542.204 1.458 1.325 2.84 3.31 2.84 1.706 0 3.31-1.005 3.31-2.84v-.352c0-.277.23-.503.51-.503h1.4c.28 0 .509.226.509.503v.352z" fill="#231F20" fill-rule="evenodd"/></svg>