<svg viewBox="0 0 140 60" xmlns="http://www.w3.org/2000/svg"><title>Slice 1</title><path d="M23.435 33.149l17.3 21.892c.907 1.237.165 2.968-1.401 2.968h-4.535c-1.237 0-1.567-.494-1.815-.824L19.192 39.499l-2.572-3.34c-.006-.007-.015-.007-.021-.014l-4.71-6.094a1.358 1.358 0 0 1 .003-1.666l4.317-5.549v-.005L32.206 1.244c.248-.33.577-.824 1.814-.824h4.535c1.566 0 2.308 1.73 1.401 2.967l-16.62 21.928h114.015c.906 0 1.649.743 1.649 1.65V31.5c0 .907-.743 1.649-1.65 1.649H23.436zM7.95 35.512v20.862c0 .907-.753 1.649-1.674 1.649H1.673c-.92 0-1.673-.742-1.673-1.65V1.954C0 1.048.753.305 1.673.305h4.603c.92 0 1.674.743 1.674 1.65v33.558z" fill="#231F20" fill-rule="evenodd"/></svg>