<svg width="141" height="81" viewBox="0 0 141 81" xmlns="http://www.w3.org/2000/svg"><path d="M6.78 19.452c-.251-.15-.503.202-.503.504v10.432c0 .302.202.504.504.504h5.14c3.125 0 5.796-2.47 5.796-5.493 0-3.528-2.671-5.947-5.796-5.947h-5.14zm5.141-4.535c3.276 0 5.09-2.217 5.09-5.14 0-2.974-2.469-4.587-5.09-4.587h-5.14c-.302 0-.504.202-.504.505v8.718c0 .302.202.504.504.504h5.14zm9.878-5.14c0 2.318-.958 5.14-2.873 6.803-.403.353-.403.806 0 1.109 2.067 1.663 3.578 4.837 3.578 7.71 0 5.845-4.787 10.28-10.583 10.28H2.598a1.01 1.01 0 0 1-1.008-1.007V1.412A1.01 1.01 0 0 1 2.598.402h9.323c5.443 0 9.878 3.93 9.878 9.374zm38.729 12.145v12.75a1.01 1.01 0 0 1-1.008 1.007h-2.772a1.01 1.01 0 0 1-1.008-1.007V1.41A1.01 1.01 0 0 1 56.748.403h2.772a1.01 1.01 0 0 1 1.008 1.008v20.511zm9.535-1.445l10.574 13.38c.554.756.1 1.814-.857 1.814H77.01c-.756 0-.958-.302-1.109-.504l-8.43-10.809-1.572-2.041c-.003-.005-.01-.005-.013-.009l-2.878-3.724a.831.831 0 0 1 .001-1.019l2.64-3.394L75.423.977c.151-.201.353-.503 1.109-.503h2.771c.958 0 1.411 1.058.857 1.813L70.003 15.69h69.683c.554 0 1.008.454 1.008 1.008v2.772c0 .554-.454 1.008-1.008 1.008H70.063zm-60.69 43.54C4.436 62.91.959 59.885.959 54.392c0-6.048 5.19-9.474 10.38-9.474 5.947 0 10.332 4.283 10.332 9.474v.655a1.01 1.01 0 0 1-1.008 1.008H17.89a1.01 1.01 0 0 1-1.007-1.008v-.655c0-3.377-2.974-4.687-5.544-4.687-3.276 0-5.543 1.814-5.543 4.687 0 4.435 4.283 4.888 7.559 5.694 5.745 1.412 9.323 4.637 9.323 10.432 0 6.45-5.493 10.482-11.34 10.482C4.839 81 0 76.263 0 70.518v-.806c0-.554.454-1.008 1.008-1.008H3.83c.555 0 1.008.454 1.008 1.008v.806c0 3.276 2.721 5.695 6.5 5.695 3.78 0 6.502-2.47 6.502-5.695 0-4.687-3.376-5.342-8.466-6.5zm78.519 0c-4.94-1.108-8.416-4.132-8.416-9.625 0-6.048 5.19-9.474 10.38-9.474 5.947 0 10.332 4.283 10.332 9.474v.655a1.01 1.01 0 0 1-1.008 1.008h-2.772a1.01 1.01 0 0 1-1.007-1.008v-.655c0-3.377-2.974-4.687-5.544-4.687-3.276 0-5.543 1.814-5.543 4.687 0 4.435 4.283 4.888 7.559 5.694 5.745 1.412 9.323 4.637 9.323 10.432 0 6.45-5.494 10.482-11.34 10.482-6.5 0-11.338-4.737-11.338-10.482v-.806c0-.554.454-1.008 1.008-1.008h2.822c.554 0 1.008.454 1.008 1.008v.806c0 3.276 2.721 5.695 6.5 5.695 3.78 0 6.502-2.47 6.502-5.695 0-4.687-3.377-5.342-8.466-6.5zM32.758 50.108c-.302 0-.504.202-.504.504v10.583c0 .302.202.504.504.504h4.788c3.175 0 5.795-2.62 5.795-5.795s-2.62-5.796-5.795-5.796h-4.788zm4.788-4.787c5.846 0 10.583 4.737 10.583 10.583 0 5.845-4.737 10.583-10.583 10.583h-4.788c-.302 0-.504.201-.504.504v12.598a1.01 1.01 0 0 1-1.007 1.008h-2.772a1.01 1.01 0 0 1-1.008-1.008V46.33a1.01 1.01 0 0 1 1.008-1.008h9.07zm23.028 29.985c0 .302.202.504.505.504h12.094a1.01 1.01 0 0 1 1.008 1.007v2.772a1.01 1.01 0 0 1-1.008 1.008H56.795a1.01 1.01 0 0 1-1.008-1.008V46.33a1.01 1.01 0 0 1 1.008-1.008h16.278c.554 0 1.007.454 1.007 1.008V49.1a1.01 1.01 0 0 1-1.007 1.008H61.079c-.303 0-.505.202-.505.504v9.071c0 .303.202.504.505.504h11.44a1.01 1.01 0 0 1 1.007 1.008v2.772a1.01 1.01 0 0 1-1.008 1.008h-11.44c-.302 0-.504.201-.504.504v9.827zm-11.21.396c.553 0 1.007.454 1.007 1.009v2.77c0 .555-.454 1.009-1.008 1.009h-.278v.012h-2.44a1.01 1.01 0 0 1-1.008-1.007v-2.772c0-.554.453-1.008 1.007-1.008h.101v-.013h2.618zm1.083-50.101c0 5.593-4.687 10.481-11.339 10.481-6.047 0-10.532-3.98-11.339-10.481-.504-4.083-.504-11.087 0-15.119C28.424 4.99 32.456 0 39.108 0c6.047 0 11.339 3.93 11.339 10.482v.705a1.01 1.01 0 0 1-1.008 1.008h-2.772a1.01 1.01 0 0 1-1.007-1.008v-.705c0-3.024-2.57-5.644-6.552-5.695-3.276 0-6.098 2.016-6.551 5.695-.504 4.132-.504 10.986 0 15.119.403 2.922 2.62 5.694 6.551 5.694 3.376 0 6.552-2.016 6.552-5.694v-.706a1.01 1.01 0 0 1 1.007-1.008h2.772a1.01 1.01 0 0 1 1.008 1.008v.706z" fill="#231F20" fill-rule="evenodd"/></svg>