<?xml version="1.0" standalone="no"?>
<!DOCTYPE svg PUBLIC "-//W3C//DTD SVG 20010904//EN"
 "http://www.w3.org/TR/2001/REC-SVG-20010904/DTD/svg10.dtd">
<svg version="1.0" xmlns="http://www.w3.org/2000/svg"
 width="600.000000pt" height="600.000000pt" viewBox="0 0 600.000000 600.000000"
 preserveAspectRatio="xMidYMid meet">
<metadata>
Created by potrace 1.11, written by Peter Selinger 2001-2013
</metadata>
<g transform="translate(0.000000,600.000000) scale(0.100000,-0.100000)"
fill="#000000" stroke="none">
<path d="M104 5981 c-23 -10 -54 -36 -70 -57 l-29 -37 -3 -2861 c-1 -1574 0
-2876 3 -2894 7 -40 59 -101 102 -118 46 -20 560 -20 606 0 43 17 95 78 102
118 3 18 4 1320 3 2893 l-3 2860 -23 32 c-12 18 -37 43 -55 55 -31 22 -38 23
-312 26 -257 2 -283 1 -321 -17z"/>
<path d="M3371 5990 c-18 -4 -45 -17 -60 -27 -14 -11 -413 -537 -886 -1169
-473 -633 -957 -1274 -1076 -1426 -119 -151 -222 -285 -228 -296 -6 -11 -11
-41 -11 -66 0 -36 7 -54 37 -93 137 -181 855 -1097 1496 -1908 570 -722 767
-965 795 -980 34 -19 59 -20 342 -23 342 -3 344 -3 404 72 40 49 48 134 18
192 -11 21 -427 550 -925 1174 l-905 1135 717 7 c394 5 1180 11 1746 16 982 7
1032 8 1068 26 22 11 51 37 65 59 l27 41 0 286 0 286 -27 41 c-14 22 -43 48
-65 59 -37 18 -92 19 -1801 24 l-1763 5 872 1140 c479 627 878 1156 886 1175
23 54 13 140 -21 185 -54 71 -75 75 -391 74 -154 -1 -295 -5 -314 -9z"/>
</g>
</svg>
